<svg width="1441" height="270" viewBox="0 0 1441 270" fill="none" xmlns="http://www.w3.org/2000/svg">
<path fill-rule="evenodd" clip-rule="evenodd" d="M0.599976 0H22.2C43.8 0 88.2 0 131.4 36C174.6 72 219 144 262.2 198C306.6 252 349.8 248 393 224C437.4 200 480.6 156 523.8 120C568.2 84 611.4 96 654.6 102C699 108 742.2 108 786.6 96C829.8 84 873 60 917.4 78C960.6 96 1003.8 156 1048.2 192C1091.4 228 1134.6 200 1179 212C1222.2 224 1266.6 236 1309.8 218C1353 200 1397.4 192 1419 168L1440.6 144V270H1419C1397.4 270 1353 270 1309.8 270C1266.6 270 1222.2 270 1179 270C1134.6 270 1091.4 270 1048.2 270C1003.8 270 960.6 270 917.4 270C873 270 829.8 270 786.6 270C742.2 270 699 270 654.6 270C611.4 270 568.2 270 523.8 270C480.6 270 437.4 270 393 270C349.8 270 306.6 270 262.2 270C219 270 174.6 270 131.4 270C88.2 270 43.8 270 22.2 270H0.599976V0Z" fill="#4452FE"/>
</svg>
