<svg width="1441" height="294" viewBox="0 0 1441 294" fill="none" xmlns="http://www.w3.org/2000/svg">
<path fill-rule="evenodd" clip-rule="evenodd" d="M0 294L26.4183 282C52.8367 270 106.874 246 159.711 204C213.748 162 266.585 102 320.622 84C373.459 66 427.497 90 480.333 132C533.17 174 587.208 234 640.044 210C694.082 186 746.918 78 800.956 48C853.792 18 907.83 66 960.667 78C1013.5 90 1067.54 66 1120.38 54C1174.41 42 1227.25 42 1281.29 84C1334.13 126 1388.16 210 1414.58 252L1441 294V0H1414.58C1388.16 0 1334.13 0 1281.29 0C1227.25 0 1174.41 0 1120.38 0C1067.54 0 1013.5 0 960.667 0C907.83 0 853.792 0 800.956 0C746.918 0 694.082 0 640.044 0C587.208 0 533.17 0 480.333 0C427.497 0 373.459 0 320.622 0C266.585 0 213.748 0 159.711 0C106.874 0 52.8367 0 26.4183 0H0V294Z" fill="url(#paint0_linear)"/>
<defs>
<linearGradient id="paint0_linear" x1="720.5" y1="-30" x2="720.5" y2="294" gradientUnits="userSpaceOnUse">
<stop offset="0.9999"/>
<stop offset="1" stop-opacity="0"/>
</linearGradient>
</defs>
</svg>
